<svg width="17" height="17" viewBox="0 0 17 17" fill="none" xmlns="http://www.w3.org/2000/svg">
<g clip-path="url(#clip0_13566_1947)">
<path fill-rule="evenodd" clip-rule="evenodd" d="M9.94685 0.648592C9.01913 -0.0729683 7.67909 -0.0729683 6.64829 0.648592L5.72056 1.37015C5.5144 1.47323 5.41132 1.57631 5.20516 1.57631L3.9682 1.78247C2.83432 1.98863 1.9066 2.91635 1.70044 4.05023L1.49428 5.28719C1.49428 5.49335 1.3912 5.69951 1.28812 5.80259L0.566561 6.73031C-0.155 7.65803 -0.155 8.99808 0.566561 10.0289L1.28812 10.9566C1.3912 11.1628 1.49428 11.2658 1.49428 11.472L1.70044 12.6059C1.9066 13.8429 2.83432 14.7706 3.9682 14.8737L5.20516 15.1829C5.41132 15.1829 5.61748 15.286 5.72056 15.3891L6.64829 16.1106C7.57601 16.8322 8.91605 16.8322 9.94685 16.1106L10.8746 15.3891C11.0807 15.286 11.1838 15.1829 11.39 15.1829L12.5239 14.9767C13.7608 14.7706 14.6885 13.8429 14.7916 12.709L14.9978 11.5751C14.9978 11.3689 15.1009 11.1628 15.2039 11.0597L15.9255 10.132C16.6471 9.20424 16.6471 7.86419 15.9255 6.83339L15.2039 5.90567C15.1009 5.69951 14.9978 5.59643 14.9978 5.39027L14.7916 4.25639C14.5855 3.01943 13.6577 2.09171 12.5239 1.98863L11.39 1.57631C11.1838 1.57631 10.9777 1.47323 10.8746 1.37015L9.94685 0.648592Z" fill="#147FCD"/>
<path fill-rule="evenodd" clip-rule="evenodd" d="M11.6993 7.14267C12.0085 6.83343 12.0085 6.31803 11.6993 6.00879C11.39 5.69955 10.8746 5.69955 10.5654 6.00879L7.26684 9.30735L6.02987 8.07039C5.72063 7.76115 5.20523 7.76115 4.89599 8.07039C4.58675 8.37963 4.58675 8.89503 4.89599 9.20427L6.75143 10.9566C7.06067 11.2659 7.57608 11.2659 7.88532 10.9566L11.6993 7.14267Z" fill="white"/>
</g>
<defs>
<clipPath id="clip0_13566_1947">
<rect width="16.4928" height="16.4928" fill="white" transform="translate(0.0507812 0.133301)"/>
</clipPath>
</defs>
</svg>
