<?xml version="1.0" standalone="no"?>
<!DOCTYPE svg PUBLIC "-//W3C//DTD SVG 20010904//EN"
 "http://www.w3.org/TR/2001/REC-SVG-20010904/DTD/svg10.dtd">
<svg version="1.0" xmlns="http://www.w3.org/2000/svg"
 width="700.000000pt" height="700.000000pt" viewBox="0 0 700.000000 700.000000"
 preserveAspectRatio="xMidYMid meet">
<metadata>
Created by potrace 1.14, written by Peter Selinger 2001-2017
</metadata>
<g transform="translate(0.000000,700.000000) scale(0.100000,-0.100000)"
fill="#000000" stroke="none">
<path d="M1949 6996 c-2 -2 -35 -6 -74 -10 -93 -8 -127 -14 -206 -32 -36 -8
-72 -16 -80 -18 -47 -9 -185 -53 -267 -85 -299 -118 -632 -358 -821 -591 -20
-25 -44 -54 -54 -65 -42 -45 -169 -247 -220 -350 -120 -237 -178 -435 -216
-730 -12 -89 -13 -3164 -1 -3225 4 -25 11 -74 15 -110 4 -35 11 -74 16 -87 5
-13 7 -23 4 -23 -7 0 45 -183 81 -285 70 -195 202 -431 333 -595 59 -73 205
-225 275 -285 295 -252 690 -432 1051 -481 28 -3 59 -9 70 -12 11 -4 733 -7
1605 -9 1761 -2 1695 -4 1965 65 714 183 1286 738 1491 1446 14 50 28 100 30
111 2 11 6 31 9 45 43 203 43 206 43 1830 0 1540 -1 1608 -32 1780 -147 806
-775 1471 -1567 1659 -104 25 -145 33 -184 37 -16 1 -43 6 -60 10 -29 8 -3197
18 -3206 10z"/>
</g>
</svg>
